<svg width="79" height="80" viewBox="0 0 79 80" fill="none" xmlns="http://www.w3.org/2000/svg">
<path d="M39.4607 0C39.4393 0.0214344 39.3964 0.0214344 39.3321 0.0214344C17.6405 0.0214344 0 17.6619 0 39.3535C0 48.2059 3.02225 56.8011 8.55232 63.7244L2.82934 77.0138C2.35778 78.1069 2.87221 79.3715 3.94393 79.8217C4.32975 79.9931 4.75843 80.036 5.16569 79.9717L26.15 76.285C30.3511 77.8068 34.7666 78.5785 39.2249 78.557C60.9165 78.557 78.557 60.9165 78.557 39.2249C78.5999 17.5976 61.088 0.0214344 39.4607 0ZM39.2464 74.2916C35.1095 74.2916 31.0156 73.5414 27.1359 72.0838C26.7716 71.9338 26.3857 71.9124 25.9999 71.9767L8.33798 75.0632L13.0107 64.196C13.3322 63.4458 13.2036 62.567 12.6677 61.9454C10.1385 59.0089 8.12363 55.6651 6.70896 52.0427C5.12282 47.9916 4.30831 43.6833 4.30831 39.3321C4.30831 19.9983 20.0412 4.28688 39.3535 4.28688C58.6231 4.24401 74.2702 19.8268 74.2916 39.0963C74.2916 39.1392 74.2916 39.1821 74.2916 39.2249C74.2916 58.5802 58.5588 74.2916 39.2464 74.2916Z" fill="#E21683" fill-opacity="0.85"/>
<path d="M61.4197 58.4397L59.2078 45.4902C58.9694 44.095 57.9797 42.9742 56.6245 42.5654L50.6585 40.7653C50.535 39.3069 49.937 37.9311 48.9419 36.842C48.1459 35.9709 47.1447 35.3366 46.0411 34.9866C46.23 34.7771 46.4051 34.5682 46.5657 34.3639C47.9845 32.5595 48.744 30.5716 48.9374 29.215H49.3977C50.5947 29.215 51.5687 28.2412 51.5687 27.044V25.9312C51.5687 25.1322 51.1192 24.4083 50.4434 24.0326V21.3564C50.4434 20.9521 50.1155 20.6242 49.7111 20.6242C49.3067 20.6242 48.979 20.952 48.979 21.3564V24.3607C48.6938 24.4103 48.3536 24.4958 48.0056 24.6424C47.9699 24.6554 47.9353 24.6704 47.9024 24.6885C47.8238 24.7243 47.7451 24.7621 47.6667 24.8047V18.9041C47.6667 17.2739 46.3405 15.9478 44.7104 15.9478H42.6894C41.9923 15.9478 41.3113 16.1906 40.7717 16.6318L40.5733 16.7939C40.2091 17.0918 39.7493 17.2559 39.2787 17.2559C38.8081 17.2559 38.3482 17.0918 37.984 16.7939L37.7857 16.6318C37.2461 16.1907 36.5651 15.9478 35.8681 15.9478H33.8469C32.2167 15.9478 30.8905 17.2739 30.8905 18.9041V24.8047C30.8121 24.7621 30.7334 24.7243 30.6548 24.6885C30.622 24.6704 30.5874 24.6554 30.5518 24.6424C30.2037 24.4958 29.8634 24.4103 29.5783 24.3607V16.7642C29.5783 14.3933 31.5072 12.4644 33.8781 12.4644H44.679C47.05 12.4644 48.9788 14.3933 48.9788 16.7642V17.9151C48.9788 18.3195 49.3066 18.6474 49.7109 18.6474C50.1152 18.6474 50.4432 18.3196 50.4432 17.9151V16.7642C50.4432 13.5858 47.8573 11 44.679 11H33.8781C30.6997 11 28.114 13.5858 28.114 16.7642V24.0327C27.4381 24.4084 26.9887 25.1322 26.9887 25.9312V27.0441C26.9887 28.2413 27.9626 29.2151 29.1597 29.2151H29.6199C29.8132 30.5717 30.5729 32.5596 31.9916 34.364C32.1521 34.5681 32.3271 34.7768 32.5157 34.9861C29.9786 35.792 28.1284 38.073 27.8988 40.7653L21.9326 42.5654C20.5774 42.9742 19.5876 44.095 19.3493 45.4902L18.4511 50.7489C18.383 51.1476 18.651 51.5258 19.0495 51.5938C19.448 51.6621 19.8264 51.394 19.8945 50.9954L20.7928 45.7367C20.9369 44.8926 21.5357 44.2146 22.3556 43.9674L27.8736 42.3024V43.7508C26.6088 43.9836 25.5325 44.8524 25.0893 46.0563C24.9716 46.3758 24.8984 46.7104 24.8719 47.0506L24.3386 53.8958C24.2983 54.4114 24.4768 54.9249 24.8278 55.3043C25.1789 55.6838 25.6769 55.9016 26.1939 55.9016H27.1068C27.5112 55.9016 27.8391 55.5738 27.8391 55.1693C27.8391 54.7648 27.5112 54.4372 27.1068 54.4372H26.1939C26.0837 54.4372 25.9776 54.3909 25.9027 54.3099C25.8279 54.229 25.7899 54.1196 25.7985 54.0098L26.3318 47.1645C26.348 46.9583 26.3922 46.7557 26.4635 46.5622C26.7719 45.7248 27.6047 45.1577 28.536 45.1512L28.6566 45.1503C28.6623 45.1502 28.6679 45.1502 28.6734 45.1502C29.5786 45.1502 30.3799 45.6635 30.7179 46.4614C30.8127 46.6852 30.8703 46.9217 30.8893 47.1645L31.4228 54.0099C31.4313 54.1196 31.3933 54.229 31.3185 54.31C31.2437 54.3908 31.1375 54.4372 31.0272 54.4372H30.1144C29.71 54.4372 29.3821 54.7649 29.3821 55.1693C29.3821 55.5737 29.71 55.9016 30.1144 55.9016H31.0272C31.5443 55.9016 32.0424 55.6839 32.3934 55.3043C32.7445 54.9247 32.923 54.4113 32.8827 53.8959L32.3492 47.0506C32.318 46.65 32.2228 46.2595 32.0662 45.89C31.5839 44.7517 30.5525 43.9602 29.3379 43.746V41.8606L31.8549 41.1012C32.0839 41.5835 32.5377 42.6258 33.4366 44.8726C34.3426 47.1396 35.4687 50.0453 36.5486 52.8701C36.5563 52.8938 36.5652 52.917 36.5752 52.9396C37.2959 54.8255 37.995 56.6726 38.593 58.2659C38.7002 58.5517 38.9733 58.7409 39.2785 58.7409C39.5837 58.7409 39.8568 58.5517 39.9641 58.2659C40.5619 56.6726 41.261 54.8255 41.9818 52.9396C41.9919 52.917 42.0007 52.8937 42.0084 52.8701C43.0876 50.047 44.2131 47.1431 45.1187 44.8768C46.0187 42.6271 46.4729 41.5839 46.702 41.1012L49.219 41.8606V46.1854C47.4751 46.5241 46.1541 48.0622 46.1541 49.9038C46.1541 51.9928 47.8536 53.6924 49.9427 53.6924C52.0317 53.6924 53.7312 51.9929 53.7312 49.9038C53.7312 48.0683 52.4189 46.5339 50.6834 46.1885V42.3025L56.2016 43.9675C57.0214 44.2147 57.6201 44.8927 57.7644 45.7368L59.9763 58.6863C60.013 58.9011 59.9559 59.111 59.8153 59.2775C59.6749 59.4439 59.4775 59.5357 59.2597 59.5357H19.2974C19.0795 59.5357 18.8822 59.444 18.7417 59.2775C18.6013 59.111 18.544 58.9012 18.5808 58.6863L19.3107 54.4127C19.3788 54.0141 19.1108 53.6358 18.7123 53.5678C18.3139 53.4994 17.9355 53.7677 17.8673 54.1662L17.1373 58.4398C17.0284 59.0777 17.2053 59.7272 17.6225 60.2219C18.0398 60.7164 18.6503 61 19.2974 61H59.2597C59.9067 61 60.5173 60.7164 60.9346 60.2218C61.3518 59.7271 61.5286 59.0776 61.4197 58.4397ZM48.9876 25.8524C49.3777 25.7552 49.6909 25.7569 49.6944 25.757C49.8206 25.7587 49.9433 25.7292 50.0522 25.6721C50.0849 25.7532 50.1041 25.8404 50.1041 25.9312V27.0441C50.1041 27.4338 49.7871 27.7508 49.3975 27.7508H48.9876V25.8524ZM29.5694 27.7508H29.1596C28.7699 27.7508 28.4529 27.4338 28.4529 27.0441V25.9312C28.4529 25.8404 28.4723 25.7532 28.5048 25.6722C28.6137 25.7293 28.7363 25.7588 28.8626 25.757C28.8682 25.758 29.1805 25.7563 29.5694 25.8528V27.7508ZM31.0338 28.5718V26.6481C31.2557 26.7146 31.4983 26.7056 31.7224 26.6121C32.1066 26.4518 32.3549 26.0794 32.3549 25.6633V18.9041C32.3549 18.0814 33.0242 17.4121 33.8469 17.4121H35.8679C36.228 17.4121 36.5799 17.5376 36.8587 17.7655L37.0569 17.9276C37.682 18.4388 38.471 18.7201 39.2785 18.7201C40.086 18.7201 40.875 18.4387 41.5001 17.9276L41.6983 17.7655C41.9771 17.5376 42.329 17.4121 42.6892 17.4121H44.7102C45.5328 17.4121 46.2021 18.0814 46.2021 18.9041V25.6634C46.2021 26.0794 46.4504 26.4519 46.8347 26.6122C46.963 26.6657 47.0974 26.6917 47.2306 26.6917C47.3299 26.6917 47.4284 26.6771 47.5232 26.6488V28.5718C47.5232 29.6408 46.7842 31.7168 45.4145 33.4588C44.9607 34.0358 44.3775 34.6558 43.6595 35.1976C43.6367 35.2128 43.6149 35.2293 43.5941 35.2469C42.4817 36.0693 41.0514 36.6994 39.2785 36.6994C37.5057 36.6994 36.0753 36.0693 34.9628 35.2468C34.942 35.2293 34.9203 35.2128 34.8977 35.1977C34.1796 34.6558 33.5964 34.0358 33.1426 33.4588C31.773 31.7169 31.0338 29.6408 31.0338 28.5718ZM44.0754 40.4014L39.2785 43.9867L34.4816 40.4014C34.9573 39.7968 35.2238 39.0207 35.2238 38.3281V37.1479C36.3519 37.7545 37.6979 38.1639 39.2785 38.1639C40.8592 38.1639 42.2053 37.7545 43.3332 37.1479V38.3281C43.3332 39.0207 43.5997 39.7968 44.0754 40.4014ZM33.2597 39.5841C32.8687 39.4352 32.4352 39.4107 32.0251 39.522C32.0071 39.5262 31.9896 39.531 31.9725 39.536L29.4429 40.2993C29.8707 38.1956 31.5789 36.5212 33.7595 36.1969V38.3281C33.7595 38.7875 33.5544 39.2624 33.2597 39.5841ZM35.2469 45.4618C35.2455 45.4584 35.2441 45.455 35.2429 45.4517C35.2058 45.3578 35.1691 45.2652 35.1328 45.1737C35.1263 45.1571 35.1197 45.1406 35.1132 45.1242C35.0776 45.0347 35.0424 44.9458 35.0076 44.8584C35.0052 44.8522 35.0027 44.8462 35.0003 44.8399C34.8918 44.5672 34.7872 44.3056 34.6866 44.0549C34.6793 44.0367 34.672 44.0183 34.6646 44.0002C34.6357 43.9283 34.6073 43.8575 34.5791 43.7876C34.5688 43.7619 34.5585 43.7365 34.5482 43.7111C34.5209 43.6434 34.4938 43.576 34.467 43.5101C34.459 43.4903 34.4512 43.4712 34.4433 43.4516C34.3947 43.3318 34.3473 43.2151 34.301 43.1014C34.2885 43.0706 34.2757 43.0393 34.2633 43.0089C34.2451 42.9646 34.2274 42.9214 34.2097 42.8779C34.1905 42.8311 34.1714 42.7846 34.1526 42.7389C34.1456 42.7218 34.1383 42.7037 34.1313 42.6867C34.1256 42.673 34.1204 42.6604 34.1148 42.6469C34.0303 42.4414 33.9499 42.2478 33.8736 42.0656C33.873 42.0642 33.8724 42.0627 33.8718 42.0612C33.8312 41.9643 33.7914 41.8695 33.7532 41.7793C33.7334 41.7325 33.7139 41.6865 33.6947 41.6414L37.8202 44.7248L36.0964 45.4571C36.0934 45.4584 36.0902 45.4597 36.0872 45.461L35.3675 45.7668C35.3267 45.6636 35.2867 45.5624 35.2469 45.4618ZM36.9939 49.945C36.8493 49.5697 36.7036 49.1923 36.5576 48.8152C36.3293 48.2255 36.1112 47.6647 35.9025 47.1306L36.1758 47.0145L37.2922 48.3122L36.9939 49.945ZM39.2927 55.896C39.2717 55.8524 39.2467 55.8113 39.2178 55.773C38.8869 54.8985 38.467 53.792 38.0022 52.5745L38.6858 48.8318H39.8712L40.5548 52.5745C40.0678 53.85 39.6304 55.0033 39.2927 55.896ZM40.1458 47.3676H38.4112L37.5904 46.4135L39.2785 45.6964L40.9666 46.4135L40.1458 47.3676ZM41.9994 48.8152C41.8534 49.1923 41.7077 49.5697 41.5631 49.945L41.2648 48.3121L42.3812 47.0144L42.6545 47.1305C42.4458 47.6646 42.2277 48.2255 41.9994 48.8152ZM44.8039 41.7793C44.7677 41.8648 44.73 41.9546 44.6916 42.0462C44.6866 42.0581 44.6815 42.0701 44.6766 42.0821C44.6386 42.1729 44.5999 42.2657 44.5599 42.3623C44.5572 42.3687 44.5545 42.3754 44.5519 42.3818C44.5173 42.4651 44.4818 42.5511 44.4458 42.6387C44.4391 42.6551 44.4327 42.6702 44.426 42.6867C44.418 42.7063 44.4094 42.7271 44.4013 42.747C44.3853 42.786 44.3689 42.8259 44.3525 42.8657C44.3324 42.9148 44.3124 42.9638 44.2918 43.0141C44.2853 43.0301 44.2785 43.0468 44.2719 43.0629C44.2209 43.1878 44.1686 43.3165 44.115 43.4487C44.1066 43.4694 44.0983 43.4897 44.0899 43.5107C44.0635 43.5761 44.0365 43.6428 44.0095 43.7099C43.9989 43.7361 43.9883 43.7623 43.9776 43.7889C43.9497 43.8581 43.9215 43.9282 43.893 43.9993C43.885 44.0191 43.8769 44.0395 43.8688 44.0594C43.7695 44.3066 43.6665 44.5646 43.5596 44.8333C43.5561 44.8422 43.5525 44.8509 43.549 44.8599C43.5145 44.9467 43.4795 45.035 43.4441 45.1239C43.4376 45.1405 43.431 45.1571 43.4243 45.1738C43.3878 45.2658 43.351 45.3588 43.3137 45.4532C43.313 45.455 43.3123 45.4567 43.3116 45.4584C43.2714 45.5602 43.231 45.6625 43.1897 45.767L42.4693 45.4609C42.4668 45.4599 42.4643 45.4588 42.4618 45.4577L40.737 44.725L44.8625 41.6416C44.8432 41.6865 44.8236 41.7324 44.8039 41.7793ZM46.5846 39.5361C46.5845 39.5361 46.5843 39.536 46.5842 39.536C46.5836 39.5358 46.5829 39.5357 46.5823 39.5354C46.1575 39.408 45.7044 39.4291 45.2975 39.5841C45.0026 39.2624 44.7977 38.7875 44.7977 38.3281V36.1958C46.9919 36.5192 48.6949 38.1779 49.1172 40.3002L46.5846 39.5361ZM52.2669 49.9038C52.2669 51.1854 51.2242 52.228 49.9427 52.228C48.6611 52.228 47.6185 51.1854 47.6185 49.9038C47.6185 48.6222 48.6611 47.5796 49.9427 47.5796C51.2242 47.5796 52.2669 48.6222 52.2669 49.9038Z" fill="#E21683" fill-opacity="0.85"/>
</svg>
